PathFileType	4	(X/Y/Z)	/home/abdul/Desktop/myosuite/custom_workspace/IK/output/S4_12_3.trc
DataRate	CameraRate	NumFrames	NumMarkers	Units	OrigDataRate	OrigDataStartFrame	OrigNumFrames
200.0	200.0	39	3	mm	200.0	231	923
Frame#	Time	V_Shoulder			V_Elbow			V_Wrist		
		X1	Y1	Z1	X2	Y2	Z2	X3	Y3	Z3

231	1.15	-64.72732595260709	553.0692393485252	276.3347127625586	-128.43273077299563	417.81668322463884	15.571891724599315	-76.82507512462647	202.96610041150342	49.42037041409346
232	1.155	-64.62064446475524	553.013094941048	276.38344349353537	-128.47542930501527	418.0233572236504	15.505556435113279	-76.73272001516224	203.42107736421627	50.27352931490829
233	1.16	-64.51905931532688	552.9610554627963	276.4310575255574	-128.52234385738288	418.2334988904868	15.439938638586053	-76.63638037500667	203.89460342850606	51.16205984242307
234	1.165	-64.42257766653215	552.913165843611	276.47755310822805	-128.57313796500253	418.44670477417236	15.375281450141301	-76.53557728241447	204.3866418926147	52.08571663644668
235	1.17	-64.33120247989194	552.8694723383218	276.52293048879204	-128.62747755175232	418.6625764925901	15.311826717540207	-76.42985818883261	204.8971597253301	53.044225863579854
236	1.175	-64.24493250471994	552.8300223851353	276.5671918772758	-128.68503156857935	418.8807212496688	15.249814625819896	-76.31879778658163	205.42612730320826	54.03728506065914
237	1.18	-64.16376227560383	552.7948644565341	276.6103414051484	-128.74547261277354	419.10075234131244	15.189483303078898	-76.20199880023651	205.97351811386258	55.0645630422749
238	1.185	-64.0876821189634	552.7640479034792	276.652385077769	-128.8084775267155	419.3222896492965	15.131068428445818	-76.0790926976576	206.53930843722725	56.12569987441925
239	1.19	-64.01667816873093	552.7376227937089	276.6933307209092	-128.87372797448052	419.5449601222885	15.07480284324921	-75.9497403169409	207.12347700667144	57.22030691582583
240	1.195	-63.950732391167385	552.7156397449197	276.73318792165946	-128.94091099477507	419.76839824309013	15.020916166381959	-75.81363240591129	207.7260046518032	58.347966928071294
241	1.2	-63.88982261879656	552.6981497536075	276.77196796404337	-129.00971952878342	419.9922464811425	14.969634414823117	-75.67049007116509	208.34687392475578	59.508234255023005
242	1.205	-63.8339225934067	552.6852040203328	276.8096837596822	-129.07985292161214	420.2161557292908	14.921179630244424	-75.52006513408217	208.98606871169545	60.7006350717429
243	1.21	-63.78300201803827	552.6768537721595	276.8463497738658	-129.15101739613544	420.4397857237673	14.875769512588619	-75.36214039166602	209.64357383123271	61.92466770249802
244	1.215	-63.73702661784489	552.6731500829932	276.88198194739675	-129.22292649816654	420.6628054463257	14.8336170614628	-75.19652978053207	210.31937462135366	63.17980300708661
245	1.22	-63.69595820968404	552.6741436925307	276.9165976145876	-129.29530151200683	420.8848935074445	14.794930226142815	-75.0230784428459	211.01345651642146	64.46548483426905
246	1.225	-63.65975478026359	552.679884824497	276.9502154177995	-129.36787184555652	421.10573850951175	14.759911564935317	-74.84166269350948	211.7258046157271	65.7811305406971
247	1.23	-63.62837057264168	552.6904230048274	276.98285521891654	-129.44037538430578	421.3250393889149	14.728757914592649	-74.65218988840286	212.4564032449956	67.12613157336648
248	1.235	-63.60175618084818	552.7058068804223	277.01453800815676	-129.51255881366276	421.5425057359771	14.701660070423285	-74.45459819400544	213.2052355121827	68.49985411327714
249	1.24	-63.57985865236878	552.7260840390676	277.04528581062453	-129.58417790921635	421.75785809171873	14.678802477687437	-74.24885625924092	213.97228285882136	69.90163977767617
250	1.245	-63.5626215982065	552.7513008310874	277.0751215910098	-129.65499779467217	421.9708282204658	14.66036293481425	-74.03496279091026	214.75752460811032	71.33080637797939
251	1.25	-63.549985310209706	552.7815021932611	277.10406915684086	-129.72479316734191	422.18115935739047	14.64651230892434	-73.81294603459197	215.56093751086468	72.78664873022174
252	1.255	-63.541886885331934	552.8167314755038	277.1321530606957	-129.793348491209	422.38860643013504	14.637414264089713	-73.58286316339465	216.38249529038586	74.2684395146727
253	1.26	-63.538260356465834	552.8570302707777	277.1593985017748	-129.86045815773127	422.5929362537556	14.633225002712438	-73.34479957743905	217.2221681872481	75.77543018107238
254	1.265	-63.53903682947245	552.9024382486642	277.1858312272309	-129.92592661468203	422.7939276983144	14.634093020354717	-73.09886811742214	218.07992250494237	77.30685189579577
255	1.27	-63.54414462600706	552.9529929930013	277.21147743364963	-129.98956846346329	422.9913718285509	14.64015887430602	-72.84520819606965	218.9557201572709	78.86191652713642
256	1.275	-63.553509431724194	553.008729843949	277.2363636690615	-130.05120852545858	423.1850720151753	14.651554966128176	-72.5839848517114	219.84951821834218	80.43981766481559
257	1.28	-63.56705444942799	553.0696817448232	277.260516735862	-130.11068187811807	423.3748440174451	14.668405338377061	-72.31538772861592	220.76126847598198	82.03973166976965
258	1.285	-63.58470055671868	553.135879093999	277.2839635950025	-130.16783386159187	423.56051603681067	14.690825485659722	-72.03962998908786	221.69091698934693	83.66081875024192
259	1.29	-63.60636646767233	553.2073496021618	277.3067312718056	-130.2225200568426	423.7419287415473	14.718922180148832	-71.75694716266847	222.6384036515083	85.30222406020937
260	1.295	-63.6319688980795	553.2841181551497	277.3288467637419	-130.27460623627843	423.918935262425	14.752793311642131	-71.46759593807658	223.60366175775852	86.96307881620257
261	1.3	-63.661422733757924	553.3662066826095	277.35033695049555	-130.32396828805102	424.0914011596002	14.792527742223424	-71.17185290378809	224.58661758038903	88.64250142863249
262	1.305	-63.69464120144621	553.4536340326587	277.37122850662644	-130.37049211525724	424.2592043610564	14.838205175553362	-70.87001324337163	225.58718995068932	90.33959864381438
263	1.31	-63.73153604177884	553.5464158527235	277.3915478171243	-130.4140735113721	424.42223507305283	14.889896040793143	-70.56238939187632	226.60528984892338	92.05346669297799
264	1.315	-63.77201768383805	553.6445644767001	277.41132089612785	-130.45461801331868	424.58039566317757	14.947661391142244	-70.2493096597038	227.64082000305615	93.78319244467139
265	1.32	-63.81599542077485	553.7480888185656	277.43057330907044	-130.4920407336509	424.7336005167346	15.011552816952184	-69.93111683049042	228.6936744970195	95.52785455710227
266	1.325	-63.863377585990314	553.8569942725461	277.4493300984878	-130.5262661733877	424.88177586731956	15.08161237336245	-69.60816673957606	229.7637383893329	97.28652462711179
267	1.33	-63.9140717293686	553.9712826199325	277.46761571370934	-130.55722801708788	425.02485960256485	15.157872522391713	-69.28082683964386	230.85088734292106	99.05826833264263
268	1.335	-63.967984793055685	554.0909519426177	277.48545394463076	-130.58486891179817	425.16280104614816	15.240356089407586	-68.94947476008238	231.9549872670006	100.8421465657398
269	1.34	-64.02502328628098	554.2159965434139	277.5028678597458	-130.6091402315404	425.2955607172676	15.329076233890891	-68.61449686654616	233.07589397194198	102.63721655331116
